<svg width="23" height="23" viewBox="0 0 23 23" fill="none" xmlns="http://www.w3.org/2000/svg">
<path d="M9.16667 3.33333L11.5 1M6.83333 16.1667L16.1667 6.83333M11.5 22L13.8333 19.6667M16.75 19.6667C17.5235 19.6667 18.2654 19.3594 18.8124 18.8124C19.3594 18.2654 19.6667 17.5235 19.6667 16.75C19.6667 15.9765 19.3594 15.2346 18.8124 14.6876C18.2654 14.1406 17.5235 13.8333 16.75 13.8333C15.9765 13.8333 15.2346 14.1406 14.6876 14.6876C14.1406 15.2346 13.8333 15.9765 13.8333 16.75C13.8333 17.5235 14.1406 18.2654 14.6876 18.8124C15.2346 19.3594 15.9765 19.6667 16.75 19.6667ZM6.25 9.16667C7.02355 9.16667 7.76541 8.85938 8.31239 8.31239C8.85938 7.76541 9.16667 7.02355 9.16667 6.25C9.16667 5.47645 8.85938 4.73459 8.31239 4.18761C7.76541 3.64062 7.02355 3.33333 6.25 3.33333C5.47645 3.33333 4.73459 3.64062 4.18761 4.18761C3.64062 4.73459 3.33333 5.47645 3.33333 6.25C3.33333 7.02355 3.64062 7.76541 4.18761 8.31239C4.73459 8.85938 5.47645 9.16667 6.25 9.16667ZM3.91667 22C4.69021 22 5.43208 21.6927 5.97906 21.1457C6.52604 20.5987 6.83333 19.8569 6.83333 19.0833C6.83333 18.3098 6.52604 17.5679 5.97906 17.0209C5.43208 16.474 4.69021 16.1667 3.91667 16.1667C3.14312 16.1667 2.40125 16.474 1.85427 17.0209C1.30729 17.5679 1 18.3098 1 19.0833C1 19.8569 1.30729 20.5987 1.85427 21.1457C2.40125 21.6927 3.14312 22 3.91667 22ZM19.0833 6.83333C19.8569 6.83333 20.5987 6.52604 21.1457 5.97906C21.6927 5.43208 22 4.69021 22 3.91667C22 3.14312 21.6927 2.40125 21.1457 1.85427C20.5987 1.30729 19.8569 1 19.0833 1C18.3098 1 17.5679 1.30729 17.0209 1.85427C16.474 2.40125 16.1667 3.14312 16.1667 3.91667C16.1667 4.69021 16.474 5.43208 17.0209 5.97906C17.5679 6.52604 18.3098 6.83333 19.0833 6.83333Z" stroke="white" stroke-width="2" stroke-linecap="round" stroke-linejoin="round"/>
</svg>
