<svg width="55" height="55" viewBox="0 0 55 55" fill="none" xmlns="http://www.w3.org/2000/svg">
<path d="M34.909 12.5767C32.9771 12.4896 32.395 12.4713 27.5 12.4713C22.605 12.4713 22.0252 12.4896 20.0933 12.5767C15.1204 12.8035 12.8035 15.1594 12.579 20.091C12.4896 22.0252 12.469 22.605 12.469 27.5C12.469 32.395 12.4896 32.9748 12.5767 34.909C12.8035 39.8315 15.1113 42.1965 20.091 42.4233C22.0229 42.5104 22.605 42.531 27.5 42.531C32.3973 42.531 32.9771 42.5127 34.909 42.4256C39.8819 42.1988 42.1965 39.8383 42.4233 34.9113C42.5104 32.9771 42.5288 32.3973 42.5288 27.5023C42.5288 22.6073 42.5104 22.0275 42.4233 20.0956C42.1965 15.1617 39.8773 12.8035 34.909 12.5767V12.5767ZM27.5 36.9142C22.3002 36.9142 18.0858 32.6998 18.0858 27.5C18.0858 22.3002 22.3025 18.0858 27.5 18.0858C32.6975 18.0858 36.9142 22.3002 36.9142 27.5C36.9142 32.6998 32.6998 36.9142 27.5 36.9142ZM37.2877 19.9146C36.0731 19.9146 35.0877 18.9292 35.0877 17.7146C35.0877 16.5 36.0731 15.5146 37.2877 15.5146C38.5023 15.5146 39.4877 16.5 39.4877 17.7146C39.4877 18.9292 38.5023 19.9146 37.2877 19.9146ZM33.6119 27.5C33.6119 30.8756 30.8756 33.6119 27.5 33.6119C24.1244 33.6119 21.3881 30.8756 21.3881 27.5C21.3881 24.1244 24.1244 21.3881 27.5 21.3881C30.8756 21.3881 33.6119 24.1244 33.6119 27.5ZM43.5417 0H11.4583C5.13104 0 0 5.13104 0 11.4583V43.5417C0 49.869 5.13104 55 11.4583 55H43.5417C49.8713 55 55 49.869 55 43.5417V11.4583C55 5.13104 49.8713 0 43.5417 0V0ZM45.7233 35.0579C45.4208 41.7244 41.7106 45.4185 35.0602 45.7233C33.1031 45.8127 32.4798 45.8333 27.5 45.8333C22.5202 45.8333 21.8992 45.8127 19.9421 45.7233C13.2779 45.4185 9.58375 41.7175 9.27667 35.0579C9.18729 33.1031 9.16667 32.4798 9.16667 27.5C9.16667 22.5225 9.18729 21.8969 9.27667 19.9421C9.58375 13.2779 13.2825 9.58146 19.9421 9.27896C21.8992 9.18729 22.5202 9.16667 27.5 9.16667C32.4798 9.16667 33.1031 9.18729 35.0602 9.27667C41.7244 9.58146 45.4254 13.2894 45.7233 19.9398C45.8127 21.8969 45.8333 22.5225 45.8333 27.5C45.8333 32.4798 45.8127 33.1031 45.7233 35.0579V35.0579Z" fill="#0674D1"/>
</svg>
