<svg width="27" height="27" viewBox="0 0 27 27" fill="none" xmlns="http://www.w3.org/2000/svg">
<path d="M13.4999 17.25C15.571 17.25 17.2499 15.5711 17.2499 13.5C17.2499 11.4289 15.571 9.75 13.4999 9.75C11.4288 9.75 9.74988 11.4289 9.74988 13.5C9.74988 15.5711 11.4288 17.25 13.4999 17.25Z" stroke="black" stroke-width="2" stroke-linecap="round" stroke-linejoin="round"/>
<path d="M21.9091 16.9091C21.7579 17.2519 21.7128 17.632 21.7795 18.0006C21.8464 18.3693 22.0221 18.7095 22.2841 18.9772L22.3523 19.0455C22.5636 19.2565 22.7312 19.5071 22.8456 19.7831C22.96 20.059 23.0189 20.3548 23.0189 20.6534C23.0189 20.9521 22.96 21.2479 22.8456 21.5238C22.7312 21.7996 22.5636 22.0502 22.3523 22.2614C22.1413 22.4726 21.8905 22.6402 21.6146 22.7546C21.3387 22.869 21.043 22.9279 20.7444 22.9279C20.4456 22.9279 20.1499 22.869 19.874 22.7546C19.5981 22.6402 19.3475 22.4726 19.1364 22.2614L19.0681 22.1931C18.8004 21.9313 18.4602 21.7555 18.0916 21.6886C17.723 21.6217 17.3428 21.6669 17 21.8181C16.6639 21.9622 16.3772 22.2014 16.1754 22.5062C15.9735 22.8111 15.8651 23.1684 15.8636 23.5341V23.7273C15.8636 24.33 15.6243 24.9081 15.198 25.3344C14.7718 25.7605 14.1936 26 13.5909 26C12.9881 26 12.4101 25.7605 11.9839 25.3344C11.5576 24.9081 11.3181 24.33 11.3181 23.7273V23.625C11.3094 23.2489 11.1876 22.8841 10.9688 22.5781C10.7499 22.272 10.444 22.039 10.0909 21.9091C9.74816 21.7579 9.36796 21.7128 8.99934 21.7795C8.6307 21.8464 8.29055 22.0221 8.02272 22.2841L7.95455 22.3523C7.74348 22.5636 7.49281 22.7312 7.21691 22.8456C6.941 22.96 6.64526 23.0189 6.34659 23.0189C6.04792 23.0189 5.75217 22.96 5.47627 22.8456C5.20036 22.7312 4.94971 22.5636 4.73864 22.3523C4.52733 22.1413 4.35969 21.8905 4.24533 21.6146C4.13095 21.3387 4.07208 21.043 4.07208 20.7444C4.07208 20.4456 4.13095 20.1499 4.24533 19.874C4.35969 19.5981 4.52733 19.3475 4.73864 19.1364L4.80681 19.0681C5.06879 18.8004 5.24453 18.4602 5.31138 18.0916C5.37821 17.723 5.33309 17.3428 5.18181 17C5.03777 16.6639 4.79859 16.3772 4.49371 16.1754C4.18884 15.9735 3.83157 15.8651 3.46591 15.8636H3.27273C2.66996 15.8636 2.09189 15.6243 1.66566 15.198C1.23945 14.7718 1 14.1936 1 13.5909C1 12.9881 1.23945 12.4101 1.66566 11.9839C2.09189 11.5576 2.66996 11.3181 3.27273 11.3181H3.375C3.75113 11.3094 4.11591 11.1876 4.42192 10.9688C4.72795 10.7499 4.96104 10.444 5.09091 10.0909C5.24217 9.74816 5.2873 9.36796 5.22046 8.99934C5.15362 8.6307 4.97789 8.29055 4.71591 8.02272L4.64772 7.95455C4.43641 7.74348 4.26879 7.49281 4.15441 7.21691C4.04004 6.941 3.98116 6.64526 3.98116 6.34659C3.98116 6.04792 4.04004 5.75217 4.15441 5.47627C4.26879 5.20036 4.43641 4.94971 4.64772 4.73864C4.8588 4.52733 5.10946 4.35969 5.38536 4.24533C5.66126 4.13095 5.95701 4.07208 6.25569 4.07208C6.55435 4.07208 6.8501 4.13095 7.126 4.24533C7.4019 4.35969 7.65256 4.52733 7.86364 4.73864L7.93181 4.80681C8.19964 5.06879 8.53979 5.24453 8.90843 5.31138C9.27705 5.37821 9.65725 5.33309 10 5.18181H10.0909C10.427 5.03777 10.7137 4.79859 10.9156 4.49371C11.1175 4.18884 11.2259 3.83157 11.2272 3.46591V3.27273C11.2272 2.66996 11.4668 2.09189 11.893 1.66566C12.3191 1.23945 12.8973 1 13.5 1C14.1027 1 14.6809 1.23945 15.107 1.66566C15.5332 2.09189 15.7728 2.66996 15.7728 3.27273V3.375C15.7741 3.74066 15.8825 4.09792 16.0845 4.4028C16.2864 4.70767 16.573 4.94686 16.9091 5.09091C17.2519 5.24217 17.632 5.2873 18.0006 5.22046C18.3693 5.15362 18.7095 4.97789 18.9772 4.71591L19.0455 4.64772C19.2565 4.43641 19.5071 4.26879 19.7831 4.15441C20.059 4.04004 20.3548 3.98116 20.6534 3.98116C20.9521 3.98116 21.2479 4.04004 21.5238 4.15441C21.7996 4.26879 22.0502 4.43641 22.2614 4.64772C22.4726 4.8588 22.6402 5.10946 22.7546 5.38536C22.869 5.66126 22.9279 5.95701 22.9279 6.25569C22.9279 6.55435 22.869 6.8501 22.7546 7.126C22.6402 7.4019 22.4726 7.65256 22.2614 7.86364L22.1931 7.93181C21.9313 8.19964 21.7555 8.53979 21.6886 8.90843C21.6217 9.27705 21.6669 9.65725 21.8181 10V10.0909C21.9622 10.427 22.2014 10.7137 22.5062 10.9156C22.8111 11.1175 23.1684 11.2259 23.5341 11.2272H23.7273C24.33 11.2272 24.9081 11.4668 25.3344 11.893C25.7605 12.3191 26 12.8973 26 13.5C26 14.1027 25.7605 14.6809 25.3344 15.107C24.9081 15.5332 24.33 15.7728 23.7273 15.7728H23.625C23.2594 15.7741 22.9021 15.8825 22.5972 16.0845C22.2924 16.2864 22.0531 16.573 21.9091 16.9091Z" stroke="black" stroke-width="2" stroke-linecap="round" stroke-linejoin="round"/>
</svg>
