<svg width="55" height="55" viewBox="0 0 55 55" fill="none" xmlns="http://www.w3.org/2000/svg">
<path fill-rule="evenodd" clip-rule="evenodd" d="M43.5417 55H11.4583C5.13104 55 0 49.869 0 43.5417V11.4583C0 5.13104 5.13104 0 11.4583 0H43.5417C49.8713 0 55 5.13104 55 11.4583V43.5417C55 49.869 49.8713 55 43.5417 55ZM37.2533 43.2025C37.746 43.5531 38.3785 43.6402 38.9446 43.4248C39.5083 43.2117 39.9254 42.7281 40.0515 42.1415C41.3783 35.9035 44.6004 20.1094 45.8081 14.4352C45.8975 14.0067 45.7463 13.5621 45.4117 13.2756C45.0748 12.9915 44.6073 12.909 44.1925 13.0625C37.7873 15.4321 18.0583 22.8342 9.99396 25.8202C9.48292 26.0081 9.15063 26.5008 9.16667 27.0417C9.185 27.5802 9.54938 28.05 10.0719 28.2081C13.6881 29.2875 18.4365 30.7931 18.4365 30.7931C18.4365 30.7931 20.6525 37.494 21.8098 40.8994C21.9542 41.3279 22.291 41.6648 22.731 41.7794C23.1733 41.894 23.6408 41.7748 23.9708 41.4631C25.8294 39.71 28.7008 36.999 28.7008 36.999C28.7008 36.999 34.1573 41.0002 37.2533 43.2025V43.2025ZM20.4325 29.9475L22.9969 38.4083L23.5675 33.0504C23.5675 33.0504 33.4767 24.1129 39.1279 19.0163C39.2929 18.8673 39.3158 18.6175 39.1783 18.441C39.0408 18.2646 38.791 18.2233 38.6031 18.3425C32.0558 22.5248 20.4325 29.9475 20.4325 29.9475V29.9475Z" fill="#0674D1"/>
</svg>
