<svg width="55" height="55" viewBox="0 0 55 55" fill="none" xmlns="http://www.w3.org/2000/svg">
<path d="M27.5825 12.2352C19.2523 12.2352 12.4781 19.0094 12.4735 27.335C12.4713 30.7335 13.4681 33.2796 15.141 35.9425L13.6148 41.5158L19.3302 40.0171C21.89 41.5365 24.3352 42.4485 27.5688 42.4485C35.8921 42.4485 42.6731 35.6744 42.6754 27.3465C42.6823 19.0025 35.9333 12.2375 27.5825 12.2352V12.2352ZM36.465 33.8296C36.0869 34.8906 34.2719 35.8577 33.401 35.9883C32.6196 36.1052 31.6296 36.1533 30.541 35.8096C29.881 35.601 29.0354 35.3215 27.9538 34.854C23.4002 32.8877 20.4256 28.3021 20.1988 27.9996C19.9719 27.6971 18.3448 25.5383 18.3448 23.304C18.3448 21.0696 19.5181 19.9719 19.9329 19.5158C20.35 19.0575 20.8404 18.9429 21.1429 18.9429L22.0138 18.959C22.2933 18.9727 22.6669 18.8535 23.0358 19.7381C23.414 20.6479 24.3215 22.8823 24.436 23.1092C24.5483 23.336 24.6263 23.6019 24.4727 23.9044C24.3215 24.2069 24.2458 24.3971 24.019 24.6606L23.3383 25.4558C23.1115 25.6827 22.8754 25.9279 23.139 26.3817C23.4048 26.8354 24.3146 28.3227 25.6644 29.5258C27.3992 31.0727 28.8613 31.5517 29.315 31.7785C29.7688 32.0054 30.0346 31.9688 30.2981 31.664C30.564 31.3615 31.4325 30.3394 31.735 29.8833C32.0375 29.4273 32.34 29.5052 32.7571 29.6565C33.1742 29.8077 35.4063 30.9054 35.86 31.1346C36.3138 31.3615 36.6163 31.476 36.7308 31.664C36.8431 31.8588 36.8431 32.7685 36.465 33.8296V33.8296ZM43.5417 0H11.4583C5.13104 0 0 5.13104 0 11.4583V43.5417C0 49.869 5.13104 55 11.4583 55H43.5417C49.8713 55 55 49.869 55 43.5417V11.4583C55 5.13104 49.8713 0 43.5417 0ZM27.5756 45.5171C24.5346 45.5171 21.5394 44.754 18.8856 43.3056L9.25375 45.8333L11.8319 36.4192C10.2415 33.6646 9.405 30.5388 9.40729 27.335C9.41188 17.3158 17.561 9.16667 27.5756 9.16667C32.4363 9.16896 36.999 11.0619 40.4296 14.4948C43.8602 17.9277 45.7485 22.495 45.7463 27.3488C45.7417 37.3679 37.5902 45.5171 27.5756 45.5171V45.5171Z" fill="#0674D1"/>
</svg>
