<svg width="25" height="25" viewBox="0 0 25 25" fill="none" xmlns="http://www.w3.org/2000/svg">
<path d="M21.2188 0.904297C20.4777 0.904297 19.7492 1.19492 19.1902 1.75292L9.59375 11.3184L9.38062 11.5315L9.3225 11.8347L8.65406 15.2253L8.35375 16.6475L9.77491 16.3471L13.1655 15.6787L13.4688 15.6206L13.6819 15.4075L23.2473 5.81102C23.6479 5.40899 23.9206 4.8974 24.031 4.34069C24.1414 3.78397 24.0845 3.20704 23.8676 2.68258C23.6507 2.15811 23.2834 1.70958 22.8121 1.39347C22.3407 1.07737 21.7863 0.907834 21.2188 0.906234V0.904297ZM21.2188 2.78367C21.4464 2.78367 21.6682 2.89992 21.8853 3.11595C22.3173 3.54802 22.3173 4.01495 21.8853 4.44798L12.5 13.8313L10.8337 14.1645L11.168 12.4983L20.5532 3.11305C20.7692 2.89702 20.9911 2.78077 21.2188 2.78077V2.78367ZM0.875 4.75023V24.1252H20.25V11.3494L18.3125 13.2869V22.1877H2.8125V6.68773H11.7134L13.6509 4.75023H0.875Z" fill="white"/>
</svg>
