<svg width="25" height="25" viewBox="0 0 25 25" fill="none" xmlns="http://www.w3.org/2000/svg">
<g clip-path="url(#clip0_41_185)">
<path fill-rule="evenodd" clip-rule="evenodd" d="M18.9967 17.0003C20.3592 15.2171 21.1781 13.0005 21.1781 10.589C21.1781 4.74953 16.4285 0 10.589 0C4.74953 0 0 4.74953 0 10.589C0 16.4285 4.74953 21.1781 10.589 21.1781C13.0005 21.1781 15.2186 20.3592 17.0017 18.9967L23.0036 25L25 23.0036L18.9967 17.0003ZM10.589 18.3543C6.30682 18.3543 2.82374 14.8698 2.82374 10.589C2.82374 6.30824 6.30682 2.82374 10.589 2.82374C14.8712 2.82374 18.3543 6.30824 18.3543 10.589C18.3543 14.8698 14.8712 18.3543 10.589 18.3543Z" fill="#9D9D9D"/>
</g>
<defs>
<clipPath id="clip0_41_185">
<rect width="25" height="25" fill="white"/>
</clipPath>
</defs>
</svg>
